<?xml version="1.0" standalone="no"?>
<!DOCTYPE svg PUBLIC "-//W3C//DTD SVG 20010904//EN"
 "http://www.w3.org/TR/2001/REC-SVG-20010904/DTD/svg10.dtd">
<svg version="1.0" xmlns="http://www.w3.org/2000/svg"
 width="602.000000pt" height="602.000000pt" viewBox="0 0 602.000000 602.000000"
 preserveAspectRatio="xMidYMid meet">
<metadata>
Created by potrace 1.14, written by Peter Selinger 2001-2017
</metadata>
<g transform="translate(0.000000,602.000000) scale(0.100000,-0.100000)"
fill="#000000" stroke="none">
<path d="M2799 6016 c-2 -2 -35 -6 -74 -10 -38 -3 -81 -8 -95 -10 -14 -3 -47
-7 -75 -11 -27 -3 -68 -10 -90 -15 -22 -5 -56 -12 -75 -15 -256 -44 -649 -197
-915 -356 -103 -61 -259 -168 -292 -198 -12 -12 -25 -21 -28 -21 -4 0 -12 -6
-19 -12 -8 -7 -38 -33 -67 -57 -55 -45 -317 -305 -354 -351 -122 -150 -234
-310 -304 -430 -30 -52 -148 -290 -186 -374 -53 -117 -154 -467 -179 -621 -35
-212 -41 -290 -40 -545 0 -206 8 -300 40 -510 12 -76 76 -323 112 -431 43
-128 104 -274 163 -391 50 -99 169 -302 181 -306 4 -2 8 -9 8 -16 0 -7 9 -21
20 -31 11 -10 20 -22 20 -26 0 -10 86 -123 158 -209 81 -95 303 -314 402 -395
425 -347 963 -577 1520 -651 30 -3 69 -9 85 -11 61 -9 463 -10 550 -2 292 27
604 100 840 196 33 13 69 28 80 32 30 12 307 150 330 164 40 24 280 181 290
189 199 158 285 236 410 370 305 327 541 737 675 1174 37 118 81 314 96 424 3
25 8 54 10 65 18 89 26 517 12 660 -12 115 -26 216 -42 290 -8 39 -17 82 -19
95 -40 211 -173 561 -306 801 -52 94 -164 273 -181 289 -3 3 -25 32 -50 65
-24 33 -49 65 -55 72 -5 6 -28 33 -50 60 -43 52 -265 277 -330 334 -47 41
-237 186 -280 214 -34 22 -30 20 -152 93 -265 160 -600 291 -908 355 -111 23
-140 28 -242 42 -21 3 -56 7 -78 11 -43 5 -511 15 -516 10z"/>
</g>
</svg>
